<svg width="24" height="25" viewBox="0 0 24 25" fill="none" xmlns="http://www.w3.org/2000/svg">
<path fill-rule="evenodd" clip-rule="evenodd" d="M19.477 17.6692L18.154 16.3462V11.2179C18.154 8.06923 16.4719 5.43333 13.5386 4.7359V4.03846C13.5386 3.18718 12.8514 2.5 12.0001 2.5C11.1488 2.5 10.4617 3.18718 10.4617 4.03846V4.7359C7.51807 5.43333 5.84627 8.05897 5.84627 11.2179V16.3462L4.5232 17.6692C3.87704 18.3154 4.32832 19.4231 5.24114 19.4231H18.7488C19.6719 19.4231 20.1232 18.3154 19.477 17.6692ZM7.89755 17.3718V11.2179C7.89755 8.67436 9.44627 6.60256 12.0001 6.60256C14.554 6.60256 16.1027 8.67436 16.1027 11.2179V17.3718H7.89755ZM14.0514 20.4487C14.0514 21.5769 13.1283 22.5 12.0001 22.5C10.8617 22.5 9.94884 21.5769 9.94884 20.4487H14.0514Z" fill="#37474F"/>
</svg>
